<?xml version="1.0" standalone="no"?>
<!DOCTYPE svg PUBLIC "-//W3C//DTD SVG 20010904//EN"
 "http://www.w3.org/TR/2001/REC-SVG-20010904/DTD/svg10.dtd">
<svg version="1.0" xmlns="http://www.w3.org/2000/svg"
 width="512.000000pt" height="512.000000pt" viewBox="0 0 512.000000 512.000000"
 preserveAspectRatio="xMidYMid meet">

<g transform="translate(0.000000,512.000000) scale(0.100000,-0.100000)"
fill="currentColor" stroke="none">
<path d="M2375 5054 c-16 -2 -73 -9 -125 -15 -435 -49 -869 -231 -1240 -518
-110 -85 -327 -302 -412 -412 -277 -358 -445 -751 -515 -1206 -23 -150 -23
-536 0 -686 112 -727 493 -1334 1087 -1732 330 -221 669 -348 1085 -407 135
-19 503 -16 650 5 373 55 731 192 1035 395 617 413 996 1025 1102 1777 17 119
16 493 -1 615 -88 635 -394 1199 -866 1597 -357 302 -802 502 -1265 568 -108
16 -467 29 -535 19z m305 -1358 c556 -62 1026 -191 1415 -389 74 -38 135 -77
162 -103 93 -94 92 -246 -4 -336 -41 -39 -94 -58 -161 -58 -53 0 -73 7 -196
70 -505 255 -1162 384 -1871 367 -324 -8 -581 -40 -830 -103 -225 -57 -348
-16 -391 131 -39 138 36 259 189 303 220 65 513 113 827 136 134 9 721 -3 860
-18z m-198 -842 c453 -46 858 -164 1230 -356 164 -85 203 -115 234 -182 28
-61 30 -117 5 -171 -35 -76 -85 -105 -182 -105 -51 0 -71 6 -152 49 -362 190
-797 317 -1242 361 -160 17 -496 14 -655 -4 -139 -17 -290 -44 -419 -77 -105
-27 -199 -25 -242 4 -123 83 -112 280 19 346 80 40 413 110 645 135 175 20
573 19 759 0z m123 -824 c327 -50 572 -124 840 -255 198 -96 235 -132 235
-232 0 -93 -65 -149 -164 -141 -38 3 -85 22 -184 72 -292 148 -585 232 -916
265 -139 14 -456 14 -606 1 -128 -12 -380 -51 -480 -74 -176 -42 -267 -4 -287
119 -7 45 26 113 70 143 38 26 194 59 432 92 249 34 327 39 630 35 235 -2 317
-7 430 -25z"/>
</g>
</svg>
